<svg xmlns="http://www.w3.org/2000/svg" viewBox="0 0 1180 1100" width="1180" height="1100" font-family="-apple-system,BlinkMacSystemFont,Segoe UI,Helvetica,Arial,sans-serif" role="img" aria-labelledby="t d">
<title id="t">SharpForge architecture and implementation languages</title><desc id="d">Layered diagram. Almost every part, including the C# compiler, the IL emitter, both interpreters, the garbage collector, the base class library, the WinUI layer and the IDE, is written in JavaScript. Numeric SIMD kernels are C compiled to WebAssembly, WebGPU rendering uses WGSL shaders, the Studio shell uses HTML and CSS, and a Rust runtime and collector compiled to WebAssembly is planned.</desc>
<defs><marker id="a" viewBox="0 0 10 10" refX="9" refY="5" markerWidth="7" markerHeight="7" orient="auto-start-reverse"><path d="M0 0L10 5L0 10z" fill="#475569"/></marker></defs>
<rect width="1180" height="1100" rx="16" fill="#ffffff"/><rect x="0.5" y="0.5" width="1179" height="1099" rx="16" fill="none" stroke="#e2e8f0"/>
<text x="28" y="42" font-size="24" font-weight="700" fill="#0f172a">SharpForge architecture</text>
<text x="28" y="66" font-size="14" fill="#475569">A complete C# and .NET toolchain written in JavaScript — the compiler, IL emitter, runtime, garbage collector and IDE run in any browser with no native code</text>
<text x="28" y="99" font-size="12.5" font-weight="700" fill="#334155">Built with</text>
<rect x="106.0" y="84.0" width="82.7" height="20.5" rx="10.25" fill="#fef3c7" stroke="#b45309" stroke-opacity="0.45"/><text x="147.3" y="98.0" font-size="11.5" font-weight="700" fill="#b45309" text-anchor="middle">JavaScript</text>
<rect x="198.7" y="84.0" width="116.0" height="20.5" rx="10.25" fill="#dbeafe" stroke="#1d4ed8" stroke-opacity="0.45"/><text x="256.7" y="98.0" font-size="11.5" font-weight="700" fill="#1d4ed8" text-anchor="middle">C → WebAssembly</text>
<rect x="324.8" y="84.0" width="96.0" height="20.5" rx="10.25" fill="#f3e8ff" stroke="#7e22ce" stroke-opacity="0.45"/><text x="372.8" y="98.0" font-size="11.5" font-weight="700" fill="#7e22ce" text-anchor="middle">WGSL shaders</text>
<rect x="430.8" y="84.0" width="82.7" height="20.5" rx="10.25" fill="#ffe4e6" stroke="#be123c" stroke-opacity="0.45"/><text x="472.1" y="98.0" font-size="11.5" font-weight="700" fill="#be123c" text-anchor="middle">HTML + CSS</text>
<rect x="523.5" y="84.0" width="202.8" height="20.5" rx="10.25" fill="#ffedd5" stroke="#9a3412" stroke-opacity="0.45"/><text x="624.9" y="98.0" font-size="11.5" font-weight="700" fill="#9a3412" text-anchor="middle">Rust → WebAssembly (planned)</text>
<rect x="736.2" y="84.0" width="109.4" height="20.5" rx="10.25" fill="#dcfce7" stroke="#15803d" stroke-opacity="0.45"/><text x="790.9" y="98.0" font-size="11.5" font-weight="700" fill="#15803d" text-anchor="middle">C# (your code)</text>
<rect x="28" y="128" width="1124" height="112" rx="12" fill="#2563eb" fill-opacity="0.07" stroke="#2563eb" stroke-opacity="0.35"/>
<rect x="28" y="128" width="6" height="112" rx="3" fill="#2563eb"/>
<text x="50" y="189.0" font-size="15" font-weight="700" fill="#2563eb">Hosts</text>
<rect x="178.0" y="145.0" width="309.3" height="78" rx="9" fill="#ffffff" stroke="#2563eb" stroke-width="1.4"/>
<text x="332.7" y="168.0" font-size="14.5" font-weight="600" fill="#0f172a" text-anchor="middle">SharpForge Studio</text>
<text x="332.7" y="185.0" font-size="11.5" fill="#64748b" text-anchor="middle">browser IDE</text>
<rect x="278.9" y="198.0" width="27.6" height="19" rx="9.5" fill="#fef3c7" stroke="#b45309" stroke-opacity="0.45"/><text x="292.7" y="210.5" font-size="10" font-weight="700" fill="#b45309" text-anchor="middle">JS</text>
<rect x="312.5" y="198.0" width="74.0" height="19" rx="9.5" fill="#ffe4e6" stroke="#be123c" stroke-opacity="0.45"/><text x="349.5" y="210.5" font-size="10" font-weight="700" fill="#be123c" text-anchor="middle">HTML · CSS</text>
<rect x="501.3" y="145.0" width="309.3" height="78" rx="9" fill="#ffffff" stroke="#2563eb" stroke-width="1.4"/>
<text x="656.0" y="168.0" font-size="14.5" font-weight="600" fill="#0f172a" text-anchor="middle">Command line</text>
<text x="656.0" y="185.0" font-size="11.5" fill="#64748b" text-anchor="middle">Node.js</text>
<rect x="642.2" y="198.0" width="27.6" height="19" rx="9.5" fill="#fef3c7" stroke="#b45309" stroke-opacity="0.45"/><text x="656.0" y="210.5" font-size="10" font-weight="700" fill="#b45309" text-anchor="middle">JS</text>
<rect x="824.7" y="145.0" width="309.3" height="78" rx="9" fill="#ffffff" stroke="#2563eb" stroke-width="1.4"/>
<text x="979.3" y="168.0" font-size="14.5" font-weight="600" fill="#0f172a" text-anchor="middle">Standalone HTML</text>
<text x="979.3" y="185.0" font-size="11.5" fill="#64748b" text-anchor="middle">single-file app</text>
<rect x="925.5" y="198.0" width="27.6" height="19" rx="9.5" fill="#fef3c7" stroke="#b45309" stroke-opacity="0.45"/><text x="939.3" y="210.5" font-size="10" font-weight="700" fill="#b45309" text-anchor="middle">JS</text>
<rect x="959.1" y="198.0" width="74.0" height="19" rx="9.5" fill="#ffe4e6" stroke="#be123c" stroke-opacity="0.45"/><text x="996.1" y="210.5" font-size="10" font-weight="700" fill="#be123c" text-anchor="middle">HTML · CSS</text>
<line x1="590.0" y1="243" x2="590.0" y2="263" stroke="#475569" stroke-width="1.6" marker-end="url(#a)"/>
<rect x="28" y="266" width="1124" height="112" rx="12" fill="#7c3aed" fill-opacity="0.07" stroke="#7c3aed" stroke-opacity="0.35"/>
<rect x="28" y="266" width="6" height="112" rx="3" fill="#7c3aed"/>
<text x="50" y="318.0" font-size="15" font-weight="700" fill="#7c3aed">IDE</text>
<text x="50" y="337.0" font-size="15" font-weight="700" fill="#7c3aed">services</text>
<rect x="178.0" y="283.0" width="147.7" height="78" rx="9" fill="#ffffff" stroke="#7c3aed" stroke-width="1.4"/>
<text x="251.8" y="306.0" font-size="14.5" font-weight="600" fill="#0f172a" text-anchor="middle">Editor</text>
<text x="251.8" y="323.0" font-size="11.5" fill="#64748b" text-anchor="middle">text engine, keymaps</text>
<rect x="238.0" y="336.0" width="27.6" height="19" rx="9.5" fill="#fef3c7" stroke="#b45309" stroke-opacity="0.45"/><text x="251.8" y="348.5" font-size="10" font-weight="700" fill="#b45309" text-anchor="middle">JS</text>
<rect x="339.7" y="283.0" width="147.7" height="78" rx="9" fill="#ffffff" stroke="#7c3aed" stroke-width="1.4"/>
<text x="413.5" y="306.0" font-size="14.5" font-weight="600" fill="#0f172a" text-anchor="middle">Language services</text>
<text x="413.5" y="323.0" font-size="11.5" fill="#64748b" text-anchor="middle">IntelliSense, refactoring</text>
<rect x="399.7" y="336.0" width="27.6" height="19" rx="9.5" fill="#fef3c7" stroke="#b45309" stroke-opacity="0.45"/><text x="413.5" y="348.5" font-size="10" font-weight="700" fill="#b45309" text-anchor="middle">JS</text>
<rect x="501.3" y="283.0" width="147.7" height="78" rx="9" fill="#ffffff" stroke="#7c3aed" stroke-width="1.4"/>
<text x="575.2" y="306.0" font-size="14.5" font-weight="600" fill="#0f172a" text-anchor="middle">Debugger</text>
<text x="575.2" y="323.0" font-size="11.5" fill="#64748b" text-anchor="middle">breakpoints, Hot Reload</text>
<rect x="561.4" y="336.0" width="27.6" height="19" rx="9.5" fill="#fef3c7" stroke="#b45309" stroke-opacity="0.45"/><text x="575.2" y="348.5" font-size="10" font-weight="700" fill="#b45309" text-anchor="middle">JS</text>
<rect x="663.0" y="283.0" width="147.7" height="78" rx="9" fill="#ffffff" stroke="#7c3aed" stroke-width="1.4"/>
<text x="736.8" y="306.0" font-size="14.5" font-weight="600" fill="#0f172a" text-anchor="middle">Visual designer</text>
<text x="736.8" y="323.0" font-size="11.5" fill="#64748b" text-anchor="middle">two-way C# sync</text>
<rect x="723.0" y="336.0" width="27.6" height="19" rx="9.5" fill="#fef3c7" stroke="#b45309" stroke-opacity="0.45"/><text x="736.8" y="348.5" font-size="10" font-weight="700" fill="#b45309" text-anchor="middle">JS</text>
<rect x="824.7" y="283.0" width="147.7" height="78" rx="9" fill="#ffffff" stroke="#7c3aed" stroke-width="1.4"/>
<text x="898.5" y="306.0" font-size="14.5" font-weight="600" fill="#0f172a" text-anchor="middle">Project system</text>
<text x="898.5" y="323.0" font-size="11.5" fill="#64748b" text-anchor="middle">MSBuild, templates</text>
<rect x="884.7" y="336.0" width="27.6" height="19" rx="9.5" fill="#fef3c7" stroke="#b45309" stroke-opacity="0.45"/><text x="898.5" y="348.5" font-size="10" font-weight="700" fill="#b45309" text-anchor="middle">JS</text>
<rect x="986.3" y="283.0" width="147.7" height="78" rx="9" fill="#ffffff" stroke="#7c3aed" stroke-width="1.4"/>
<text x="1060.2" y="306.0" font-size="14.5" font-weight="600" fill="#0f172a" text-anchor="middle">LSP / DAP</text>
<text x="1060.2" y="323.0" font-size="11.5" fill="#64748b" text-anchor="middle">external editors</text>
<rect x="1046.4" y="336.0" width="27.6" height="19" rx="9.5" fill="#fef3c7" stroke="#b45309" stroke-opacity="0.45"/><text x="1060.2" y="348.5" font-size="10" font-weight="700" fill="#b45309" text-anchor="middle">JS</text>
<line x1="590.0" y1="381" x2="590.0" y2="401" stroke="#475569" stroke-width="1.6" marker-end="url(#a)"/>
<rect x="28" y="404" width="1124" height="112" rx="12" fill="#0891b2" fill-opacity="0.07" stroke="#0891b2" stroke-opacity="0.35"/>
<rect x="28" y="404" width="6" height="112" rx="3" fill="#0891b2"/>
<text x="50" y="465.0" font-size="15" font-weight="700" fill="#0891b2">Compiler</text>
<rect x="178.0" y="421.0" width="167.2" height="78" rx="9" fill="#ffffff" stroke="#0891b2" stroke-width="1.4"/>
<text x="261.6" y="444.0" font-size="14.5" font-weight="600" fill="#0f172a" text-anchor="middle">C# source</text>
<text x="261.6" y="461.0" font-size="11.5" fill="#64748b" text-anchor="middle">programs, templates</text>
<rect x="247.8" y="474.0" width="27.6" height="19" rx="9.5" fill="#dcfce7" stroke="#15803d" stroke-opacity="0.45"/><text x="261.6" y="486.5" font-size="10" font-weight="700" fill="#15803d" text-anchor="middle">C#</text>
<line x1="349.2" y1="460.0" x2="371.2" y2="460.0" stroke="#475569" stroke-width="1.6" marker-end="url(#a)"/>
<rect x="375.2" y="421.0" width="167.2" height="78" rx="9" fill="#ffffff" stroke="#0891b2" stroke-width="1.4"/>
<text x="458.8" y="444.0" font-size="14.5" font-weight="600" fill="#0f172a" text-anchor="middle">Syntax</text>
<text x="458.8" y="461.0" font-size="11.5" fill="#64748b" text-anchor="middle">lossless parser</text>
<rect x="445.0" y="474.0" width="27.6" height="19" rx="9.5" fill="#fef3c7" stroke="#b45309" stroke-opacity="0.45"/><text x="458.8" y="486.5" font-size="10" font-weight="700" fill="#b45309" text-anchor="middle">JS</text>
<line x1="546.4" y1="460.0" x2="568.4" y2="460.0" stroke="#475569" stroke-width="1.6" marker-end="url(#a)"/>
<rect x="572.4" y="421.0" width="167.2" height="78" rx="9" fill="#ffffff" stroke="#0891b2" stroke-width="1.4"/>
<text x="656.0" y="444.0" font-size="14.5" font-weight="600" fill="#0f172a" text-anchor="middle">Binder</text>
<text x="656.0" y="461.0" font-size="11.5" fill="#64748b" text-anchor="middle">symbols, types, flow</text>
<rect x="642.2" y="474.0" width="27.6" height="19" rx="9.5" fill="#fef3c7" stroke="#b45309" stroke-opacity="0.45"/><text x="656.0" y="486.5" font-size="10" font-weight="700" fill="#b45309" text-anchor="middle">JS</text>
<line x1="743.6" y1="460.0" x2="765.6" y2="460.0" stroke="#475569" stroke-width="1.6" marker-end="url(#a)"/>
<rect x="769.6" y="421.0" width="167.2" height="78" rx="9" fill="#ffffff" stroke="#0891b2" stroke-width="1.4"/>
<text x="853.2" y="444.0" font-size="14.5" font-weight="600" fill="#0f172a" text-anchor="middle">Lowering</text>
<text x="853.2" y="461.0" font-size="11.5" fill="#64748b" text-anchor="middle">closures, async, patterns</text>
<rect x="839.4" y="474.0" width="27.6" height="19" rx="9.5" fill="#fef3c7" stroke="#b45309" stroke-opacity="0.45"/><text x="853.2" y="486.5" font-size="10" font-weight="700" fill="#b45309" text-anchor="middle">JS</text>
<line x1="940.8" y1="460.0" x2="962.8" y2="460.0" stroke="#475569" stroke-width="1.6" marker-end="url(#a)"/>
<rect x="966.8" y="421.0" width="167.2" height="78" rx="9" fill="#ffffff" stroke="#0891b2" stroke-width="1.4"/>
<text x="1050.4" y="444.0" font-size="14.5" font-weight="600" fill="#0f172a" text-anchor="middle">Emit</text>
<text x="1050.4" y="461.0" font-size="11.5" fill="#64748b" text-anchor="middle">bytecode and IL</text>
<rect x="1036.6" y="474.0" width="27.6" height="19" rx="9.5" fill="#fef3c7" stroke="#b45309" stroke-opacity="0.45"/><text x="1050.4" y="486.5" font-size="10" font-weight="700" fill="#b45309" text-anchor="middle">JS</text>
<line x1="590.0" y1="519" x2="590.0" y2="539" stroke="#475569" stroke-width="1.6" marker-end="url(#a)"/>
<rect x="28" y="542" width="1124" height="112" rx="12" fill="#0d9488" fill-opacity="0.07" stroke="#0d9488" stroke-opacity="0.35"/>
<rect x="28" y="542" width="6" height="112" rx="3" fill="#0d9488"/>
<text x="50" y="594.0" font-size="15" font-weight="700" fill="#0d9488">Compiled</text>
<text x="50" y="613.0" font-size="15" font-weight="700" fill="#0d9488">output</text>
<rect x="178.0" y="559.0" width="309.3" height="78" rx="9" fill="#ffffff" stroke="#0d9488" stroke-width="1.4"/>
<text x="332.7" y="582.0" font-size="14.5" font-weight="600" fill="#0f172a" text-anchor="middle">Managed bytecode</text>
<text x="332.7" y="599.0" font-size="11.5" fill="#64748b" text-anchor="middle">debugging VM image</text>
<rect x="501.3" y="559.0" width="309.3" height="78" rx="9" fill="#ffffff" stroke="#0d9488" stroke-width="1.4"/>
<text x="656.0" y="582.0" font-size="14.5" font-weight="600" fill="#0f172a" text-anchor="middle">ECMA-335 assembly</text>
<text x="656.0" y="599.0" font-size="11.5" fill="#64748b" text-anchor="middle">.dll + Portable PDB</text>
<line x1="812.7" y1="598.0" x2="822.7" y2="598.0" stroke="#475569" stroke-width="1.6" stroke-dasharray="4 3" marker-end="url(#a)"/>
<rect x="824.7" y="559.0" width="309.3" height="78" rx="9" fill="#f8fafc" stroke="#0d9488" stroke-width="1.4" stroke-dasharray="6 4"/>
<text x="979.3" y="582.0" font-size="14.5" font-weight="600" fill="#0f172a" text-anchor="middle">.NET runtime</text>
<text x="979.3" y="599.0" font-size="11.5" fill="#64748b" text-anchor="middle">loads the same assembly</text>
<rect x="948.1" y="612.0" width="62.4" height="19" rx="9.5" fill="#f1f5f9" stroke="#475569" stroke-opacity="0.45"/><text x="979.3" y="624.5" font-size="10" font-weight="700" fill="#475569" text-anchor="middle">external</text>
<line x1="590.0" y1="657" x2="590.0" y2="677" stroke="#475569" stroke-width="1.6" marker-end="url(#a)"/>
<rect x="28" y="680" width="1124" height="112" rx="12" fill="#16a34a" fill-opacity="0.07" stroke="#16a34a" stroke-opacity="0.35"/>
<rect x="28" y="680" width="6" height="112" rx="3" fill="#16a34a"/>
<text x="50" y="732.0" font-size="15" font-weight="700" fill="#16a34a">Managed</text>
<text x="50" y="751.0" font-size="15" font-weight="700" fill="#16a34a">runtime</text>
<rect x="178.0" y="697.0" width="147.7" height="78" rx="9" fill="#ffffff" stroke="#16a34a" stroke-width="1.4"/>
<text x="251.8" y="720.0" font-size="14.5" font-weight="600" fill="#0f172a" text-anchor="middle">Bytecode VM</text>
<text x="251.8" y="737.0" font-size="11.5" fill="#64748b" text-anchor="middle">interpreter</text>
<rect x="238.0" y="750.0" width="27.6" height="19" rx="9.5" fill="#fef3c7" stroke="#b45309" stroke-opacity="0.45"/><text x="251.8" y="762.5" font-size="10" font-weight="700" fill="#b45309" text-anchor="middle">JS</text>
<rect x="339.7" y="697.0" width="147.7" height="78" rx="9" fill="#ffffff" stroke="#16a34a" stroke-width="1.4"/>
<text x="413.5" y="720.0" font-size="14.5" font-weight="600" fill="#0f172a" text-anchor="middle">CIL interpreter</text>
<text x="413.5" y="737.0" font-size="11.5" fill="#64748b" text-anchor="middle">ECMA-335 IL</text>
<rect x="399.7" y="750.0" width="27.6" height="19" rx="9.5" fill="#fef3c7" stroke="#b45309" stroke-opacity="0.45"/><text x="413.5" y="762.5" font-size="10" font-weight="700" fill="#b45309" text-anchor="middle">JS</text>
<rect x="501.3" y="697.0" width="147.7" height="78" rx="9" fill="#ffffff" stroke="#16a34a" stroke-width="1.4"/>
<text x="575.2" y="720.0" font-size="14.5" font-weight="600" fill="#0f172a" text-anchor="middle">Garbage collector</text>
<text x="575.2" y="737.0" font-size="11.5" fill="#64748b" text-anchor="middle">precise mark-sweep</text>
<rect x="561.4" y="750.0" width="27.6" height="19" rx="9.5" fill="#fef3c7" stroke="#b45309" stroke-opacity="0.45"/><text x="575.2" y="762.5" font-size="10" font-weight="700" fill="#b45309" text-anchor="middle">JS</text>
<rect x="663.0" y="697.0" width="147.7" height="78" rx="9" fill="#ffffff" stroke="#16a34a" stroke-width="1.4"/>
<text x="736.8" y="720.0" font-size="14.5" font-weight="600" fill="#0f172a" text-anchor="middle">Tasks and threads</text>
<text x="736.8" y="737.0" font-size="11.5" fill="#64748b" text-anchor="middle">scheduler</text>
<rect x="723.0" y="750.0" width="27.6" height="19" rx="9.5" fill="#fef3c7" stroke="#b45309" stroke-opacity="0.45"/><text x="736.8" y="762.5" font-size="10" font-weight="700" fill="#b45309" text-anchor="middle">JS</text>
<rect x="824.7" y="697.0" width="147.7" height="78" rx="9" fill="#ffffff" stroke="#16a34a" stroke-width="1.4"/>
<text x="898.5" y="720.0" font-size="14.5" font-weight="600" fill="#0f172a" text-anchor="middle">SIMD compute</text>
<text x="898.5" y="737.0" font-size="11.5" fill="#64748b" text-anchor="middle">kernels, workers</text>
<rect x="850.5" y="750.0" width="62.4" height="19" rx="9.5" fill="#dbeafe" stroke="#1d4ed8" stroke-opacity="0.45"/><text x="881.7" y="762.5" font-size="10" font-weight="700" fill="#1d4ed8" text-anchor="middle">C → Wasm</text>
<rect x="918.9" y="750.0" width="27.6" height="19" rx="9.5" fill="#fef3c7" stroke="#b45309" stroke-opacity="0.45"/><text x="932.7" y="762.5" font-size="10" font-weight="700" fill="#b45309" text-anchor="middle">JS</text>
<rect x="986.3" y="697.0" width="147.7" height="78" rx="9" fill="#f8fafc" stroke="#16a34a" stroke-width="1.4" stroke-dasharray="6 4"/>
<text x="1060.2" y="720.0" font-size="14.5" font-weight="600" fill="#0f172a" text-anchor="middle">Rust runtime + GC</text>
<text x="1060.2" y="737.0" font-size="11.5" fill="#64748b" text-anchor="middle">planned</text>
<rect x="1020.3" y="750.0" width="79.8" height="19" rx="9.5" fill="#ffedd5" stroke="#9a3412" stroke-opacity="0.45"/><text x="1060.2" y="762.5" font-size="10" font-weight="700" fill="#9a3412" text-anchor="middle">Rust → Wasm</text>
<line x1="590.0" y1="795" x2="590.0" y2="815" stroke="#475569" stroke-width="1.6" marker-end="url(#a)"/>
<rect x="28" y="818" width="1124" height="112" rx="12" fill="#d97706" fill-opacity="0.07" stroke="#d97706" stroke-opacity="0.35"/>
<rect x="28" y="818" width="6" height="112" rx="3" fill="#d97706"/>
<text x="50" y="879.0" font-size="15" font-weight="700" fill="#d97706">Framework</text>
<rect x="178.0" y="835.0" width="228.5" height="78" rx="9" fill="#ffffff" stroke="#d97706" stroke-width="1.4"/>
<text x="292.2" y="858.0" font-size="14.5" font-weight="600" fill="#0f172a" text-anchor="middle">Base class library</text>
<text x="292.2" y="875.0" font-size="11.5" fill="#64748b" text-anchor="middle">collections, text, JSON</text>
<rect x="278.4" y="888.0" width="27.6" height="19" rx="9.5" fill="#fef3c7" stroke="#b45309" stroke-opacity="0.45"/><text x="292.2" y="900.5" font-size="10" font-weight="700" fill="#b45309" text-anchor="middle">JS</text>
<rect x="420.5" y="835.0" width="228.5" height="78" rx="9" fill="#ffffff" stroke="#d97706" stroke-width="1.4"/>
<text x="534.8" y="858.0" font-size="14.5" font-weight="600" fill="#0f172a" text-anchor="middle">Networking</text>
<text x="534.8" y="875.0" font-size="11.5" fill="#64748b" text-anchor="middle">explicit origin grants</text>
<rect x="521.0" y="888.0" width="27.6" height="19" rx="9.5" fill="#fef3c7" stroke="#b45309" stroke-opacity="0.45"/><text x="534.8" y="900.5" font-size="10" font-weight="700" fill="#b45309" text-anchor="middle">JS</text>
<rect x="663.0" y="835.0" width="228.5" height="78" rx="9" fill="#ffffff" stroke="#d97706" stroke-width="1.4"/>
<text x="777.2" y="858.0" font-size="14.5" font-weight="600" fill="#0f172a" text-anchor="middle">WinUI controls</text>
<text x="777.2" y="875.0" font-size="11.5" fill="#64748b" text-anchor="middle">layout, styles, animation</text>
<rect x="723.5" y="888.0" width="27.6" height="19" rx="9.5" fill="#fef3c7" stroke="#b45309" stroke-opacity="0.45"/><text x="737.2" y="900.5" font-size="10" font-weight="700" fill="#b45309" text-anchor="middle">JS</text>
<rect x="757.1" y="888.0" width="74.0" height="19" rx="9.5" fill="#ffe4e6" stroke="#be123c" stroke-opacity="0.45"/><text x="794.1" y="900.5" font-size="10" font-weight="700" fill="#be123c" text-anchor="middle">HTML · CSS</text>
<rect x="905.5" y="835.0" width="228.5" height="78" rx="9" fill="#ffffff" stroke="#d97706" stroke-width="1.4"/>
<text x="1019.8" y="858.0" font-size="14.5" font-weight="600" fill="#0f172a" text-anchor="middle">Rendering</text>
<text x="1019.8" y="875.0" font-size="11.5" fill="#64748b" text-anchor="middle">WebGPU · Canvas · DOM</text>
<rect x="983.4" y="888.0" width="27.6" height="19" rx="9.5" fill="#fef3c7" stroke="#b45309" stroke-opacity="0.45"/><text x="997.1" y="900.5" font-size="10" font-weight="700" fill="#b45309" text-anchor="middle">JS</text>
<rect x="1017.0" y="888.0" width="39.2" height="19" rx="9.5" fill="#f3e8ff" stroke="#7e22ce" stroke-opacity="0.45"/><text x="1036.5" y="900.5" font-size="10" font-weight="700" fill="#7e22ce" text-anchor="middle">WGSL</text>
<line x1="590.0" y1="933" x2="590.0" y2="953" stroke="#475569" stroke-width="1.6" marker-end="url(#a)"/>
<rect x="28" y="956" width="1124" height="112" rx="12" fill="#64748b" fill-opacity="0.07" stroke="#64748b" stroke-opacity="0.35"/>
<rect x="28" y="956" width="6" height="112" rx="3" fill="#64748b"/>
<text x="50" y="1017.0" font-size="15" font-weight="700" fill="#64748b">Platform</text>
<rect x="178.0" y="973.0" width="471.0" height="78" rx="9" fill="#ffffff" stroke="#64748b" stroke-width="1.4"/>
<text x="413.5" y="996.0" font-size="14.5" font-weight="600" fill="#0f172a" text-anchor="middle">Browser</text>
<text x="413.5" y="1013.0" font-size="11.5" fill="#64748b" text-anchor="middle">Web Workers, WebAssembly, WebGPU</text>
<rect x="382.3" y="1026.0" width="62.4" height="19" rx="9.5" fill="#f1f5f9" stroke="#475569" stroke-opacity="0.45"/><text x="413.5" y="1038.5" font-size="10" font-weight="700" fill="#475569" text-anchor="middle">external</text>
<rect x="663.0" y="973.0" width="471.0" height="78" rx="9" fill="#ffffff" stroke="#64748b" stroke-width="1.4"/>
<text x="898.5" y="996.0" font-size="14.5" font-weight="600" fill="#0f172a" text-anchor="middle">Node.js</text>
<text x="898.5" y="1013.0" font-size="11.5" fill="#64748b" text-anchor="middle">CLI, tests, native MSBuild host</text>
<rect x="867.3" y="1026.0" width="62.4" height="19" rx="9.5" fill="#f1f5f9" stroke="#475569" stroke-opacity="0.45"/><text x="898.5" y="1038.5" font-size="10" font-weight="700" fill="#475569" text-anchor="middle">external</text>
</svg>
